<svg xmlns="http://www.w3.org/2000/svg" viewBox="0 0 789.53 322.61"><defs><style>.cls-1{fill:#040000;}</style></defs><title>Adsset 1</title><g id="Layer_2" data-name="Layer 2"><g id="字体"><path class="cls-1" d="M197.79,313.59a19.22,19.22,0,0,1-32.74-13.81,18.38,18.38,0,0,1,6-14,18.89,18.89,0,0,1,13.25-5.23,19.3,19.3,0,0,1,13.48,33.07Zm-24.8-25a16,16,0,0,0,.08,22.52,15.78,15.78,0,0,0,22.44,0,16,16,0,0,0,0-22.49,15.64,15.64,0,0,0-22.55,0Zm2.88,21.87V289.14l5.94,0c2.64,0,4.11,0,4.4,0a10.27,10.27,0,0,1,4.21,1.09,5.39,5.39,0,0,1,2.85,5.1,4.63,4.63,0,0,1-1.51,3.88,6.9,6.9,0,0,1-3.69,1.43,7.15,7.15,0,0,1,3,1.24,5.8,5.8,0,0,1,1.88,4.78v1.91a4.44,4.44,0,0,0,0,.63,3.6,3.6,0,0,0,.15.63l.2.6H188a16,16,0,0,1-.35-3,10.1,10.1,0,0,0-.35-2.61,2.6,2.6,0,0,0-1.57-1.57,6.7,6.7,0,0,0-1.91-.34l-1.23-.07h-1.17v7.55Zm10.19-17.14a9.27,9.27,0,0,0-3.24-.44h-1.36v6.19h2.17a5.12,5.12,0,0,0,3.05-.79,2.89,2.89,0,0,0,1.1-2.53A2.43,2.43,0,0,0,186.06,293.35Z"/><path class="cls-1" d="M31.23,3.47,80,3.67c8.17,0,33.07.21,48,13.27,15.72,13.68,17.35,37,12.86,58-9.59,45.31-39,69-68,74.1-5.72,1-12,1.63-26.94,1.63H0Zm5.92,122.88c3.47.2,8.78.41,12.45.41,13.47,0,25.31-1,36.33-10.21,15.11-12.45,20.62-34.5,22.25-41.64,4.49-20.82,1.43-40-17.35-45.52-6.12-1.83-14.29-2.85-32.66-2Z"/><path class="cls-1" d="M237.39,0C253.1,0,273.92,3.67,285,20c11.83,18,10,41,6.94,55.52-4.5,21.44-15.93,44.3-30.83,57.77-20.2,18.37-44.7,21-56.94,21-19.4,0-37.36-6.12-48-20.21C143.7,117,147,92.46,149.82,79,158,39.8,184.32,0,237.39,0Zm-52,119.2c3.06,6.13,9.39,11.84,24.08,11.84,12.86,0,22.66-4.49,30.62-13.67,6.33-7.35,13.88-18.78,19-42.26,1.43-7.14,3.06-17.34,1.84-26.33-2.25-18.16-13.06-26.12-28.17-26.12a41.93,41.93,0,0,0-29.8,12.45c-10.41,10.2-16.33,26.12-19.8,42.86C180,92.06,179,107.77,185.34,119.2Z"/><path class="cls-1" d="M350.06,3.47l-19,89.81c-3.47,16.13-6.53,36.33,24.29,36.33,5.1,0,20.41-.2,31.23-12.86,4.08-4.49,6.94-10.2,10-25.1L415.38,3.47H446.2L426.6,95.53c-9.18,43.88-47.15,58-77,58-14.69,0-41-3.27-50-25.52-4.89-11.23-2.85-22.66,0-36.33L318.42,3.47Z"/><path class="cls-1" d="M464.16,3.27h55.12c8.57,0,25.1,0,34.9,6.94,11.63,8.57,11.63,22.86,10,31.43-1.22,5.51-4.28,15.1-13.27,22-1.42,1.23-10,7.76-19,10v.4c21.43,4.09,26.74,20.42,23.47,35.93-3.67,17.35-16.32,29-29,34.7-12.66,5.92-32.66,5.92-38.37,5.92H432.93ZM468.25,127h21.43c14.49,0,30.82,0,34.9-19.8,4.49-21-14.49-21-29.59-21H476.82Zm13.47-63.68h22c9,0,25.31,0,29.4-19,3.87-18.37-11.64-18.37-22-18.37H489.68Z"/><path class="cls-1" d="M588.27,3.27h32.25L594.59,125.53h63.28l-5.31,25.11H557Z"/><path class="cls-1" d="M690.74,3.06h98.79l-5.11,24.09H717.27l-7.55,35.11h62.87l-5.11,24.08H704.62l-8.37,39.8h69.4l-5.31,24.5h-101Z"/><path class="cls-1" d="M238.41,171.36h31.64l-12.66,59h55.73l12.65-59h32.05L326.39,318.94H294.75l13.67-64.7H252.29l-13.67,64.7H207Z"/><path class="cls-1" d="M439.87,168.3c15.72,0,36.54,3.68,47.56,20,11.84,18,10,41,6.94,55.52-4.49,21.43-15.92,44.29-30.82,57.76-20.21,18.37-44.7,21-56.95,21-19.39,0-37.35-6.12-48-20.2-12.45-17.15-9.18-41.64-6.32-55.11C360.47,208.1,386.8,168.3,439.87,168.3ZM387.82,287.51c3.07,6.12,9.39,11.84,24.09,11.84,12.86,0,22.66-4.5,30.62-13.68,6.32-7.35,13.88-18.78,19-42.25,1.43-7.15,3.06-17.35,1.84-26.33C461.1,198.92,450.28,191,435.18,191a41.93,41.93,0,0,0-29.8,12.45c-10.41,10.21-16.33,26.13-19.8,42.86C382.52,260.36,381.5,276.08,387.82,287.51Z"/><path class="cls-1" d="M586.43,168.3c15.72,0,36.54,3.68,47.56,20,11.84,18,10,41,6.94,55.52-4.49,21.43-15.92,44.29-30.82,57.76-20.21,18.37-44.7,21-57,21-19.39,0-37.35-6.12-48-20.2-12.45-17.15-9.18-41.64-6.32-55.11C507,208.1,533.36,168.3,586.43,168.3Zm-52,119.21c3.06,6.12,9.39,11.84,24.09,11.84,12.86,0,22.65-4.5,30.61-13.68,6.33-7.35,13.88-18.78,19-42.25,1.43-7.15,3.06-17.35,1.83-26.33C607.66,198.92,596.84,191,581.74,191a41.93,41.93,0,0,0-29.8,12.45c-10.41,10.21-16.33,26.13-19.8,42.86C529.07,260.36,528.05,276.08,534.38,287.51Z"/><path class="cls-1" d="M666,171.77l48.78.21c8.17,0,33.07.2,48,13.26,15.72,13.68,17.35,36.95,12.86,58-9.59,45.32-39,69-68,74.1-5.72,1-12,1.63-26.94,1.63H634.81ZM672,294.65c3.47.2,8.78.41,12.45.41,13.47,0,25.31-1,36.33-10.21,15.11-12.45,20.62-34.49,22.25-41.64,4.49-20.82,1.43-40-17.35-45.51-6.12-1.84-14.29-2.86-32.66-2Z"/></g></g></svg>