<svg xmlns="http://www.w3.org/2000/svg" viewBox="0 0 330.14 332.84"><defs><style>.cls-1{fill:#040000;}</style></defs><title>Asset 1</title><g id="Layer_2" data-name="Layer 2"><g id="字体"><path class="cls-1" d="M215.42,325.39A18.46,18.46,0,0,1,184,312.11a17.63,17.63,0,0,1,5.78-13.47,18.09,18.09,0,0,1,12.72-5,18.54,18.54,0,0,1,12.95,31.77Zm-23.82-24a15.37,15.37,0,0,0,.08,21.63,15.16,15.16,0,0,0,21.56,0,15,15,0,0,0,4.47-10.9,14.83,14.83,0,0,0-4.45-10.71,15,15,0,0,0-21.66,0Zm2.76,21V301.9h5.71c2.54,0,4,0,4.23,0a10,10,0,0,1,4,1.05,5.17,5.17,0,0,1,2.74,4.9,4.48,4.48,0,0,1-1.44,3.73,6.71,6.71,0,0,1-3.56,1.37,7.06,7.06,0,0,1,2.92,1.19,5.59,5.59,0,0,1,1.8,4.6v1.83c0,.2,0,.4,0,.6a3.39,3.39,0,0,0,.15.61l.19.57h-5.12a14.77,14.77,0,0,1-.34-2.83,9.33,9.33,0,0,0-.34-2.51,2.49,2.49,0,0,0-1.5-1.51,6,6,0,0,0-1.84-.32l-1.17-.08h-1.13v7.25Zm9.79-16.46a9,9,0,0,0-3.11-.43h-1.3v5.95h2.08a5,5,0,0,0,2.93-.75,2.78,2.78,0,0,0,1.06-2.44A2.34,2.34,0,0,0,204.15,305.94Z"/><path class="cls-1" d="M104.93,43.76c-.57,1.85-1.18,3.55-1.8,5.26,13.12,4.92,33.88,9.69,49.68,11.07a104.14,104.14,0,0,0-7.61,17.17,120.43,120.43,0,0,1-17.7-4.1l3.29,10.11-49.23,16-2.6-8A166.13,166.13,0,0,1,66.9,104.53a40.8,40.8,0,0,0-6.29-4.46c-3.89,3.43-7.69,6.67-11.58,10.1l12.12,37.31c2.75,8.46,2.76,13.63-1,18S50,172.81,40.35,176a75,75,0,0,0-10.58-15.6c5.48-1.62,10.77-3.34,12.53-4.08,1.82-.58,2.37-1.43,1.74-3.4l-9.82-30.2-9.45,7.91L14.15,113.83c3.94-2.79,8.64-6.32,13.84-10.34L19.75,78.11,5.4,82.77,0,66.16,14.35,61.5,5.12,33.1l17.07-5.54L31.42,56,43,52.17l5.4,16.62L36.81,72.57,43,91.6l8.74-7,3.47,6.06c14.82-14.51,27.31-32.59,32.5-48ZM59.51,46.32,43.2,51.62l-5-15.4,16.31-5.3L50.68,19.14l16.91-5.5,3.83,11.78,25.07-8.14L92.66,5.5,109.58,0l3.83,11.78,17.52-5.69,5,15.4-17.52,5.7,4.37,13.44-16.92,5.49L101.5,32.68,76.43,40.83l4.36,13.44-16.91,5.5Zm14.73,63.84L145.53,87,162,137.6l-17.52,5.69-1.77-5.44-37,12,1.77,5.43-16.77,5.45Zm45.3-39.43c-8-2.57-15.78-5.39-22.19-8.15a180.77,180.77,0,0,1-11.19,19ZM95.82,119.52l5.05,15.55,37-12-5.05-15.55Z"/><path class="cls-1" d="M229,102.17c-5.1,3.33-10.15,6.81-15.4,10.18l11.83,36.4c2.75,8.46,2.61,13.18-1.14,17.57s-10.09,7-19.46,10a67,67,0,0,0-10.33-14.85A106.47,106.47,0,0,0,206,157.89c1.81-.58,2.37-1.43,1.78-3.25l-10.4-32c-4.7,3-9,5.76-13.13,8.44l-10-15.79c5.09-2.83,10.95-6.4,17.4-10.16l-8.93-27.49-16.16,5.25-5.4-16.62L177.34,61l-9.22-28.39,17.67-5.74L195,55.26l13.9-4.51,5.4,16.61-13.9,4.52,7.46,23,13.42-8.53Zm74.83,19.61c8.3-2.7,8.69-7.17,4.55-24.53,5.36,1.6,14.05,2.12,19.73,1.61,4.94,23.44,1.75,33.66-17.13,39.79L278,149.35c-20.7,6.72-29.16,3.3-36.47-19.21L208.18,27.44l80.2-26.06,27.38,84.28-18.88,6.13-3.09-9.51L251.2,96.12l9.13,28.09c3,9.21,4.79,10.13,14.16,7.09ZM232.65,39l13,40,12.83-4.17-13-40Zm42.59-13.84L262.1,29.46l13,40,13.14-4.27Z"/><path class="cls-1" d="M44.15,187.07A257.53,257.53,0,0,1,40,220.13L74.68,326.76,56,332.84,30.63,254.91c-2.16,5.71-4.46,11-6.7,15.87a128.32,128.32,0,0,0-16-16c9.68-18,16.35-43.72,17.39-67.77Zm15.3,68.16c1.55-12.19-1-31.9-4.66-47.24l17.95-3.33c4.59,16.71,7.65,37.42,6.49,51.83ZM94.07,167c6.57,20.74,12.61,39.32,16.65,56.37,15.23,31,33.7,51.33,64.18,52.11-2.75,4.9-5.83,14.42-6.73,20.39-22.53-2-38.67-12.65-52.45-30.38-.71,20.94-8,39.51-26.1,56.9-3.93-3.89-11.93-9-17.34-11.23,38.14-35.76,23-73.24,2.31-137.83ZM142.8,184.4c.47,17.38.22,36.66-1.13,49.46l-17.68.57A289.47,289.47,0,0,0,121.6,186Z"/></g></g></svg>